<svg width="1024" height="700" viewBox="0 0 1024 1024" fill="none" xmlns="http://www.w3.org/2000/svg">
<path d="M805.997 599.181C816.416 586.928 825.266 574.061 831.848 559.706C836.95 548.581 837.469 537.714 832.316 526.094C815.631 488.472 799.51 450.597 783.176 412.818C782.713 411.747 782.259 410.671 781.865 409.574C778.963 401.489 781.599 397.16 790.15 396.974C800.443 396.752 810.759 396.637 821.038 397.642C826.35 398.162 828.555 402.031 830.344 406.309C835.038 417.53 838.293 427.784 843 439C843.684 440.63 843.171 445.586 845.5 446.5C848.924 437.456 854.507 426.441 857.957 417.455C865.784 397.068 874.388 377.007 883.173 357.021C885.518 351.686 884.303 349.668 878.569 349.27C872.448 348.845 866.318 348.567 860.191 348.239C853.798 347.896 849.475 344.229 848.294 338.124C847.198 332.459 849.798 326.986 855.206 324.507C879.674 313.293 904.183 302.171 928.695 291.053C933.334 288.949 937.746 286.09 943.326 287.28C948.813 288.451 952.098 291.544 951.998 297.144C951.665 315.818 951.322 334.5 950.42 353.152C949.985 362.134 950.605 371.152 949.237 380.124C948.549 384.629 947.271 388.304 942.705 389.756C937.843 391.302 933.459 390.276 930.134 386.187C926.983 382.312 923.976 378.317 920.892 374.386C919.677 372.837 918.423 371.319 916.423 368.84C910.718 379.078 907.278 389.354 903.324 399.849C913.386 395.219 923.71 397.986 933.825 397.671C942.967 397.387 946.95 403.294 943.49 411.787C930.854 442.808 918.139 473.796 905.327 504.743C896.406 526.295 887.961 548.081 878.107 569.2C852.861 623.309 812.703 663.059 759.764 689.939C729.764 705.172 698.008 714.865 664.757 719.918C647.503 722.54 630.16 724.224 612.778 724.399C588.056 724.648 563.47 722.382 539.028 718.289C497.658 711.36 458.171 697.449 417.994 686.086C393.56 679.175 368.876 673.269 343.566 670.949C298.801 666.845 255.427 672.342 214.584 692.249C195.485 701.558 178.578 714.277 162.45 728.03C154.529 734.784 147.932 734.74 140.562 727.372C136.916 723.727 133.386 719.935 130.114 715.952C124.322 708.899 124.632 703.041 131.131 696.519C149.429 678.155 170.634 663.962 193.947 652.861C220.698 640.124 248.737 632.007 278.226 628.814C305.415 625.87 332.484 626.426 359.622 629.677C400.683 634.596 440.041 646.369 479.317 658.61C508.338 667.655 537.858 674.69 568.088 677.813C628.926 684.099 687.652 676.245 742.888 648.652C767.074 636.57 788.323 620.378 805.997 599.181Z" fill="#ABEB26"/>
<path d="M805.904 598.496C816.346 586.26 825.216 573.411 831.814 559.077C836.927 547.969 837.447 537.117 832.282 525.514C815.559 487.946 799.402 450.126 783.03 412.401C782.567 411.333 782.111 410.258 781.716 409.162C778.807 401.09 781.45 396.766 790.02 396.581C800.337 396.359 810.676 396.244 820.979 397.248C826.302 397.766 828.513 401.63 830.306 405.902C834.961 416.988 858.625 477.266 863.696 489.392C867.575 478.74 907.014 390.033 903.453 399.451C913.538 394.828 923.885 397.591 934.023 397.277C943.186 396.993 947.178 402.892 943.711 411.372C931.046 442.348 918.302 473.291 905.461 504.194C896.519 525.714 888.055 547.469 878.179 568.558C852.875 622.588 812.625 662.281 759.565 689.122C729.496 704.333 697.668 714.012 664.341 719.057C647.047 721.676 629.665 723.357 612.244 723.532C587.465 723.78 562.823 721.519 538.325 717.431C496.86 710.512 457.283 696.621 417.015 685.274C392.524 678.373 367.784 672.476 342.416 670.159C297.549 666.061 254.076 671.551 213.139 691.429C193.997 700.724 177.051 713.424 160.886 727.158C152.947 733.902 146.335 733.858 138.949 726.501C135.295 722.861 131.756 719.075 128.477 715.097C122.671 708.055 122.982 702.205 129.496 695.692C147.835 677.355 169.089 663.183 192.456 652.098C219.267 639.379 247.37 631.274 276.927 628.085C304.178 625.146 331.309 625.701 358.509 628.947C399.663 633.859 439.112 645.615 478.477 657.838C507.564 666.87 537.152 673.895 567.451 677.014C628.428 683.29 687.288 675.447 742.65 647.895C766.892 635.83 788.189 619.661 805.904 598.496Z" fill="#007D30"/>
<path d="M453.964 543.939C431.463 530.984 420.112 511.366 416.934 486.359C414.044 463.607 418.159 442.471 431.72 423.845C445.199 405.331 463.404 394.46 486.526 391.956C506.407 389.802 524.561 393.442 540.839 406.557C543.922 397.567 550.764 396.522 558.646 397C564.79 397.373 570.976 397.006 577.141 397.107C583.297 397.209 586.662 400.575 586.667 406.795C586.7 450.461 587.277 494.138 586.422 537.788C585.975 560.621 580.045 582.269 563.047 599.261C551.511 610.791 537.104 616.771 521.469 619.444C490.726 624.699 460.84 621.478 432.414 608.064C421.958 603.13 420.874 599.681 425.657 589.192C428.559 582.829 431.44 576.451 434.528 570.177C436.909 565.34 440.614 563.984 445.678 565.84C447.228 566.408 448.724 567.19 450.141 568.046C464.557 576.759 480.31 581.568 497.005 581.859C519.438 582.249 535.666 574.338 540.911 544.46C541.432 541.496 543.144 538.353 540.93 535.04C514.187 558.093 485.031 558.857 453.964 543.939ZM531.505 446.795C518.068 433.666 498.177 431.054 482.376 440.344C467.519 449.079 460.6 466.686 465.811 484.551C471.647 504.557 488.749 514.418 510.628 510.484C519.596 508.872 527.347 504.7 532.774 497.216C544.267 481.364 543.875 463.975 531.505 446.795Z" fill="#007D30"/>
<path d="M768.732 480.429C768.455 501.072 770.074 521.231 768.626 541.353C767.03 563.518 760.865 583.971 743.669 599.408C729.749 611.905 713.159 618.627 694.625 620.834C671.177 623.626 648.566 620.478 626.808 611.415C622.217 609.502 617.786 607.103 613.524 604.526C607.83 601.084 606.802 596.836 609.846 590.978C613.224 584.478 616.677 578.017 620.107 571.543C625.207 561.919 627.396 561.386 636.663 567.528C645.897 573.647 655.649 578.727 666.685 580.487C683.605 583.187 699.754 581.95 712.163 568.193C720.333 559.136 724.113 548.226 724.217 536.014C722.296 535.704 721.597 536.799 720.761 537.525C708.011 548.587 693.13 553.8 676.331 553.765C640.364 553.69 610.892 529.435 604.121 494.014C599.071 467.6 601.916 442.362 618.781 420.533C636.743 397.284 660.945 388.069 690.117 391.805C702.124 393.343 712.883 397.701 721.901 405.322C724.05 404.997 724.131 403.379 724.74 402.313C726.744 398.805 729.626 397.041 733.702 397.068C742.032 397.123 750.362 397.008 758.691 397.11C765.319 397.19 768.668 400.676 768.682 407.464C768.731 431.619 768.72 455.774 768.732 480.429ZM722.64 457.717C716.317 442.698 704.76 434.684 688.746 433.911C669.315 432.973 654.21 445.636 650.561 465.38C647.772 480.468 652.078 493.552 663.884 503.388C676.169 513.624 690.254 513.795 704.256 507.597C722.416 499.56 729.709 479.555 722.64 457.717Z" fill="#007D30"/>
<path d="M399.646 440.43C399.653 474.917 399.666 508.905 399.663 542.893C399.663 551.931 396.791 554.755 387.677 554.762C380.679 554.768 373.682 554.772 366.684 554.761C357.59 554.747 355.295 552.982 353.012 544.326C352.852 543.72 352.577 543.146 352.387 542.643C350.326 542.297 349.477 543.771 348.451 544.733C326.657 565.171 288.717 562.896 267.491 546.561C255.941 537.672 250.654 524.944 248.067 511C246.671 503.472 246.236 495.832 246.231 488.17C246.214 462.012 246.166 435.855 246.143 409.698C246.134 399.751 249.197 396.595 259.26 396.394C266.588 396.247 273.92 396.244 281.251 396.255C291.336 396.271 294.431 399.332 294.461 409.373C294.538 435.863 294.584 462.353 294.612 488.843C294.617 493.257 295.629 497.401 297.551 501.345C305.21 517.068 322.127 518.026 335.861 511.318C345.215 506.75 350.852 498.919 351.013 488.334C351.387 463.853 351.288 439.364 351.406 414.878C351.421 411.883 351.421 408.871 351.731 405.898C352.427 399.219 354.984 396.492 361.538 396.295C370.859 396.013 380.203 395.973 389.522 396.278C396.431 396.505 399.499 400.279 399.584 407.942C399.701 418.604 399.634 429.267 399.646 440.43Z" fill="#007D30"/>
<path d="M125.7 523.43C125.698 530.595 125.745 537.261 125.68 543.926C125.616 550.511 122.245 554.439 115.752 554.639C106.263 554.931 96.7529 554.916 87.2624 554.65C81.2141 554.48 78.0218 550.747 78.0186 544.583C77.9951 499.09 77.9936 453.598 78.0155 408.106C78.0189 401.039 80.9542 397.696 88.2549 397.366C96.2365 397.004 104.258 397.025 112.242 397.358C119.373 397.655 122.186 400.474 124.53 408.684C131.5 400.493 140.243 395.515 150.464 393.711C174.099 389.538 196.044 392.445 213.359 411.054C221.436 419.735 225.555 430.549 226.617 442.215C229.111 469.629 227.135 497.131 227.681 524.589C227.814 531.252 227.745 537.92 227.685 544.585C227.627 550.892 224.652 554.432 218.425 554.629C208.936 554.928 199.424 554.927 189.935 554.64C183.386 554.443 180.205 550.514 180.176 543.23C180.108 525.733 180.16 508.236 180.148 490.739C180.141 480.407 180.185 470.075 180.061 459.745C179.902 446.533 171.763 437.37 158.545 435.945C153.802 435.433 148.936 435.239 144.148 436.496C132.408 439.578 125.754 447.857 125.721 459.94C125.662 480.937 125.701 501.933 125.7 523.43Z" fill="#007D30"/>
</svg>
